<svg width="100" height="100" viewBox="0 0 100 100" fill="none" xmlns="http://www.w3.org/2000/svg">
<path d="M100 70.95C100 89.15 89.15 100 70.95 100H65C62.25 100 60 97.75 60 95V66.15C60 64.8 61.1 63.65 62.45 63.65L71.25 63.5C71.95 63.45 72.55 62.95 72.7 62.25L74.45 52.7C74.6 51.8 73.9 50.95 72.95 50.95L62.3 51.1C60.9 51.1 59.8 50 59.75 48.65L59.55 36.4C59.55 35.6 60.2 34.9001 61.05 34.9001L73.05 34.7C73.9 34.7 74.55 34.05 74.55 33.2001L74.35 21.2C74.35 20.35 73.7 19.7 72.85 19.7L59.35 19.9001C51.05 20.0501 44.45 26.85 44.6 35.15L44.85 48.9C44.9 50.3 43.8 51.4 42.4 51.45L36.4 51.55C35.55 51.55 34.9001 52.2 34.9001 53.05L35.05 62.55C35.05 63.4 35.7 64.05 36.55 64.05L42.55 63.95C43.95 63.95 45.05 65.05 45.1 66.4L45.55 94.9C45.6 97.7 43.35 100 40.55 100H29.05C10.85 100 0 89.15 0 70.9V29.05C0 10.85 10.85 0 29.05 0H70.95C89.15 0 100 10.85 100 29.05V70.95Z" fill="white"/>
</svg>
