<svg width="100" height="100" viewBox="0 0 100 100" fill="none" xmlns="http://www.w3.org/2000/svg">
<path d="M82.3504 74.1485L84.3003 89.9482C84.8003 94.0981 80.3504 96.9981 76.8005 94.8481L59.5008 84.5483C58.3008 83.8483 58.0009 82.3484 58.6508 81.1484C61.1508 76.5485 62.5008 71.3486 62.5008 66.1487C62.5008 47.849 46.8011 32.9493 27.5014 32.9493C23.5515 32.9493 19.7015 33.5493 16.1016 34.7493C14.2516 35.3493 12.4517 33.6493 12.9017 31.7494C17.4516 13.5497 34.9512 0 55.8509 0C80.2504 0 100 18.4496 100 41.1992C100 54.6989 93.0501 66.6487 82.3504 74.1485Z" fill="white"/>
<path d="M54.9989 66.1476C54.9989 72.0975 52.7989 77.5974 49.099 81.9473C44.1491 87.9472 36.2993 91.7971 27.4994 91.7971L14.4497 99.5469C12.2498 100.897 9.44981 99.047 9.7498 96.497L10.9998 86.6472C4.29991 81.9973 0 74.5474 0 66.1476C0 57.3478 4.69991 49.5979 11.8998 44.998C16.3497 42.0981 21.6996 40.4481 27.4994 40.4481C42.6991 40.4481 54.9989 51.9479 54.9989 66.1476Z" fill="white"/>
</svg>
