<svg width="101" height="100" viewBox="0 0 101 100" fill="none" xmlns="http://www.w3.org/2000/svg">
<path d="M99.9288 47.0511C98.2289 18.0518 71.8794 -4.29766 41.53 0.702237C20.6303 4.15217 3.88068 21.1017 0.630749 42.0012C-1.26921 54.1009 1.23084 65.5507 6.68073 75.0005L2.23077 91.5502C1.23079 95.3001 4.68062 98.7 8.38054 97.65L24.6803 93.1501C32.0801 97.5 40.73 100 49.9798 100C78.1792 100 101.579 75.1505 99.9288 47.0511ZM74.4293 68.6006C73.9793 69.5006 73.4293 70.3506 72.7294 71.1506C71.4794 72.5005 70.1294 73.5005 68.6294 74.1005C67.1295 74.7505 65.4795 75.0505 63.7295 75.0505C61.1796 75.0505 58.4296 74.451 55.5797 73.201C52.6798 71.9511 49.8298 70.3006 46.9799 68.2506C44.0799 66.1507 41.38 63.8007 38.78 61.2508C36.1801 58.6508 33.88 55.9009 31.78 53.0509C29.7301 50.201 28.0802 47.3511 26.8802 44.5011C25.6802 41.6512 25.0804 38.9015 25.0804 36.3015C25.0804 34.6015 25.3803 32.9515 25.9803 31.4516C26.5803 29.9016 27.5304 28.5017 28.8803 27.2517C30.4803 25.6517 32.2302 24.9018 34.0801 24.9018C34.7801 24.9018 35.4799 25.0517 36.1299 25.3517C36.7799 25.6517 37.38 26.1017 37.8301 26.7517L43.6299 34.9515C44.0799 35.6014 44.4299 36.1514 44.6299 36.7014C44.8799 37.2514 44.9799 37.7514 44.9799 38.2514C44.9799 38.8514 44.7799 39.4515 44.4299 40.0512C44.0799 40.6512 43.6299 41.2512 43.0299 41.8512L41.13 43.8511C40.83 44.1511 40.73 44.4511 40.73 44.8511C40.73 45.0511 40.78 45.2511 40.83 45.4511C40.93 45.6511 40.98 45.8011 41.03 45.9511C41.48 46.8011 42.28 47.851 43.3799 49.151C44.5299 50.451 45.7299 51.801 47.0299 53.1009C48.3798 54.4509 49.6798 55.6509 51.0298 56.8009C52.3298 57.9008 53.4297 58.6508 54.2797 59.1008C54.4297 59.1508 54.5797 59.2508 54.7297 59.3008C54.9297 59.4008 55.1297 59.4008 55.3797 59.4008C55.8297 59.4008 56.1297 59.2508 56.4297 58.9508L58.3296 57.0509C58.9796 56.4009 59.5796 55.9509 60.1296 55.6509C60.7296 55.3009 61.2796 55.1009 61.9296 55.1009C62.4296 55.1009 62.9296 55.2009 63.4795 55.4509C64.0295 55.7009 64.6295 56.0009 65.2295 56.4509L73.5293 62.3507C74.1793 62.8007 74.6293 63.3507 74.9293 63.9507C75.1793 64.6007 75.3293 65.2007 75.3293 65.9007C75.0293 66.7507 74.8293 67.7006 74.4293 68.6006Z" fill="white"/>
</svg>
